# xmcd CD database file
#
# Track frame offsets:
#	183
#	15863
#	25203
#	36320
#	46980
#	64778
#	75228
#	84548
#	98523
#	110765
#	121643
#	133648
#	147985
#	158673
#	172908
#	182188
#	194708
#	206230
#	219783
#	231468
#
# Disc length: 3228 seconds
#
# Revision: 0
# Processed by: cddbd v1.5.1PL0 Copyright (c) Steve Scherf et al.
# Submitted via: CDex 1.51
#
DISCID=090c9a14
DTITLE=Irving Berlin Song Book [MCPS GRF 106] - Irving Berlin Song Book 
DYEAR=1901
DGENRE=Jazz
TTITLE0=Cheek to Cheek
TTITLE1=Doin' What Comes Natur'lly
TTITLE2=Easter Parade
TTITLE3=The Girl That I Marry
TTITLE4=Change Parnters
TTITLE5=Isn't This A Lovely Day
TTITLE6=It's A Lovely Day Today
TTITLE7=Let's Face The Music And Dance
TTITLE8=The Piccolino
TTITLE9=Top Hat, White Ties And Tails
TTITLE10=You're Just In Love
TTITLE11=Always
TTITLE12=Anything You Can Do, I Can Do Better
TTITLE13=Heat Wave
TTITLE14=I'm Putting All My Eggs In One Basket
TTITLE15=Let Yourself Go
TTITLE16=There's No Business Like Show Business
TTITLE17=They Say It's Wonderful
TTITLE18=White Christmas
TTITLE19=Give Me Your Tired, Your Poor
EXTD=YEAR: 1901
EXTT0=
EXTT1=
EXTT2=
EXTT3=
EXTT4=
EXTT5=
EXTT6=
EXTT7=
EXTT8=
EXTT9=
EXTT10=
EXTT11=
EXTT12=
EXTT13=
EXTT14=
EXTT15=
EXTT16=
EXTT17=
EXTT18=
EXTT19=
PLAYORDER=
